<?xml version="1.0" standalone="no"?>
<!DOCTYPE svg PUBLIC "-//W3C//DTD SVG 20010904//EN"
 "http://www.w3.org/TR/2001/REC-SVG-20010904/DTD/svg10.dtd">
<svg version="1.0" xmlns="http://www.w3.org/2000/svg"
 width="300.000000pt" height="300.000000pt" viewBox="0 0 300.000000 300.000000"
 preserveAspectRatio="xMidYMid meet">
<metadata>
Created by potrace 1.14, written by Peter Selinger 2001-2017
</metadata>
<g transform="translate(0.000000,300.000000) scale(0.100000,-0.100000)"
fill="#000000" stroke="none">
<path d="M954 2973 c1 -16 5 -33 9 -40 4 -6 3 -15 -3 -18 -8 -5 -7 -11 1 -21
9 -11 9 -14 -1 -14 -8 0 -9 -4 -4 -12 11 -16 11 -39 1 -55 -5 -7 -4 -13 1 -13
5 0 8 -11 8 -25 -2 -29 -41 -69 -58 -59 -7 4 -8 3 -4 -4 4 -7 -3 -14 -19 -18
-14 -3 -25 -10 -25 -15 0 -16 -31 6 -89 61 -30 28 -72 60 -95 72 -45 23 -114
31 -133 16 -7 -6 -13 -7 -13 -3 0 5 -9 0 -21 -11 -26 -23 -69 -106 -74 -142
-2 -15 -6 -36 -8 -47 -4 -19 -13 -84 -24 -185 -4 -44 -6 -144 -2 -185 3 -38
-1 -46 -18 -41 -53 17 -209 24 -330 15 l-53 -4 0 -1112 0 -1113 1500 0 1501 0
-3 498 -3 497 -31 65 c-17 36 -37 83 -44 105 -10 33 -59 114 -80 135 -3 3 -25
30 -50 60 -25 30 -70 81 -100 113 l-55 58 -2 122 c-1 67 -4 136 -8 152 -3 17
-9 46 -12 65 -3 19 -11 41 -17 49 -9 12 -8 13 4 6 10 -5 9 -1 -3 13 -11 11
-16 25 -13 31 4 5 2 12 -4 16 -6 4 -8 11 -5 16 4 5 1 9 -6 9 -23 0 -1 68 70
215 39 80 71 148 71 149 0 2 8 21 17 42 9 22 17 41 18 44 0 3 5 19 9 35 38
132 -50 198 -181 136 -32 -16 -72 -40 -89 -54 -18 -15 -35 -27 -38 -27 -6 0
-45 -31 -76 -61 -19 -17 -41 -14 -34 5 3 8 -2 21 -11 30 -9 9 -14 16 -10 16 3
0 -5 11 -17 24 -13 13 -25 23 -28 23 -3 -1 -24 9 -47 21 -23 12 -51 23 -61 25
-22 3 -48 27 -47 42 0 6 7 21 15 35 7 14 13 26 12 28 -4 5 11 58 20 69 5 7 7
17 3 23 -3 5 -3 10 2 10 4 0 9 10 9 23 2 32 14 110 19 125 3 9 -43 12 -209 12
-205 0 -214 -1 -219 -20 -3 -11 -1 -23 4 -26 5 -3 6 -10 3 -16 -4 -6 -8 -32
-9 -58 -1 -26 -5 -52 -9 -59 -4 -6 -2 -11 5 -11 8 0 8 -4 2 -12 -6 -7 -9 -20
-8 -29 3 -17 -30 -19 -95 -4 -19 5 -51 9 -70 10 -19 0 -40 4 -47 8 -6 4 -15 2
-19 -4 -4 -7 -9 -8 -13 -1 -4 6 -25 7 -53 2 -27 -4 -48 -3 -48 1 0 4 -9 6 -20
4 -11 -2 -20 1 -20 6 0 6 -6 7 -12 3 -10 -6 -10 -4 -2 7 13 16 13 127 0 148
-6 10 -5 12 2 7 8 -5 9 0 3 16 -8 23 -10 23 -209 26 l-200 2 2 -27z"/>
</g>
</svg>
